<svg width="86" height="85" viewBox="0 0 86 85" fill="none" xmlns="http://www.w3.org/2000/svg">
<path fill-rule="evenodd" clip-rule="evenodd" d="M36.471 19.4519C39.2499 16.6731 43.0095 14.875 47.2595 14.875C52.8172 14.875 57.721 17.9808 60.3364 22.5577C62.6249 21.5769 65.0768 20.9231 67.6922 20.9231C77.8268 20.9231 85.9999 29.0962 85.9999 39.2308C85.9999 49.3654 77.8268 57.5385 67.6922 57.5385C66.3845 57.5385 65.2403 57.375 64.096 57.2115C61.8076 61.2981 57.3941 64.0769 52.3268 64.0769C50.2018 64.0769 48.2403 63.5865 46.4422 62.7692C44.1537 68.1635 38.7595 71.9231 32.3845 71.9231C25.846 71.9231 20.1249 67.8365 17.9999 61.9519C17.0191 62.1154 16.0383 62.2789 15.0576 62.2789C7.21143 62.2789 0.836426 55.9039 0.836426 48.0577C0.836426 42.8269 3.61527 38.25 7.86527 35.7981C7.04796 33.8365 6.55758 31.5481 6.55758 29.2596C6.55758 20.2692 13.9133 12.9135 23.0672 12.9135C28.7884 13.0769 33.5287 15.5289 36.471 19.4519" fill="#00A1E0"/>
</svg>
